<?xml version="1.0" standalone="no"?>
<!DOCTYPE svg PUBLIC "-//W3C//DTD SVG 20010904//EN"
 "http://www.w3.org/TR/2001/REC-SVG-20010904/DTD/svg10.dtd">
<svg version="1.0" xmlns="http://www.w3.org/2000/svg"
 width="26.000000pt" height="26.000000pt" viewBox="0 0 26.000000 26.000000"
 preserveAspectRatio="xMidYMid meet">

<g transform="translate(0.000000,26.000000) scale(0.100000,-0.100000)"
fill="#435288" stroke="none">
<path d="M71 242 c-38 -20 -71 -73 -71 -112 0 -62 68 -130 130 -130 39 0 92
33 112 71 23 43 23 75 0 118 -20 38 -73 71 -112 71 -14 0 -41 -8 -59 -18z
m132 -40 c30 -33 38 -70 22 -108 -13 -31 -16 -33 -34 -22 -11 7 -21 21 -23 33
-2 15 -12 21 -40 23 -25 2 -38 8 -38 18 0 8 4 14 9 14 5 0 11 9 14 20 3 12 14
20 25 20 12 0 24 5 27 10 9 15 20 12 38 -8z m-113 -118 c0 -6 7 -17 15 -24 19
-16 19 -30 1 -30 -39 0 -97 84 -79 113 6 11 63 -42 63 -59z"/>
</g>
</svg>
