<svg width="65" height="65" viewBox="0 0 65 65" fill="none" xmlns="http://www.w3.org/2000/svg">
<path d="M32.5 0C26.0721 0 19.7886 1.90609 14.444 5.47724C9.09938 9.04838 4.93378 14.1242 2.47393 20.0628C0.0140817 26.0014 -0.629527 32.536 0.624493 38.8404C1.87851 45.1448 4.97384 50.9357 9.51904 55.481C14.0642 60.0262 19.8552 63.1215 26.1596 64.3755C32.464 65.6295 38.9986 64.9859 44.9372 62.5261C50.8758 60.0662 55.9516 55.9006 59.5228 50.556C63.0939 45.2114 65 38.9279 65 32.5C64.9903 23.8834 61.5631 15.6226 55.4702 9.52975C49.3774 3.43692 41.1166 0.00970797 32.5 0ZM4.6893 33.4146L7.7963 34.4495L11.6072 40.167V43.1456C11.6072 43.7613 11.8517 44.3517 12.2871 44.7871L18.5714 51.0714V56.5883C14.481 54.2212 11.0604 50.8519 8.63178 46.7978C6.20314 42.7436 4.84639 38.138 4.6893 33.4146ZM32.5 60.3571C30.4919 60.3532 28.4901 60.1316 26.5298 59.6962L27.8572 55.7143L32.0464 45.2409C32.1863 44.8913 32.239 44.5129 32.2 44.1383C32.161 43.7638 32.0315 43.4044 31.8226 43.091L28.5464 38.1766C28.3344 37.8586 28.0471 37.5978 27.7102 37.4175C27.3732 37.2372 26.9969 37.1428 26.6147 37.1428H15.1701L12.2725 32.7957L17.2113 27.8571H20.8929V32.5H25.5357V26.1523L34.5155 10.4374L30.4845 8.13405L28.5 11.6071H22.1353L19.6142 7.82577C22.9987 6.03959 26.7183 4.97853 30.5358 4.71029C34.3533 4.44205 38.1847 4.97252 41.7857 6.26786V13.9286C41.7857 14.5442 42.0303 15.1347 42.4656 15.5701C42.901 16.0054 43.4915 16.25 44.1071 16.25H47.5076C47.8898 16.25 48.266 16.1557 48.603 15.9753C48.94 15.795 49.2272 15.5343 49.4392 15.2163L51.4749 12.1627C54.1268 14.6352 56.272 17.6005 57.7908 20.8929H48.3321C47.7955 20.8928 47.2754 21.0788 46.8603 21.419C46.4453 21.7593 46.161 22.2328 46.0558 22.759L44.3795 33.1377C44.3006 33.6258 44.3797 34.1264 44.6052 34.5665C44.8306 35.0065 45.1908 35.3631 45.633 35.5842L53.3929 39.4643L54.9833 48.8793C52.4068 52.4304 49.0266 55.3215 45.119 57.3163C41.2114 59.3111 36.8873 60.3531 32.5 60.3571Z" fill="#19426B"/>
</svg>
