<svg width="22" height="26" viewBox="0 0 22 26" fill="none" xmlns="http://www.w3.org/2000/svg">
<path d="M20.6004 13.5707C18.5491 8.46951 11.2454 8.19445 13.0093 0.780238C13.1399 0.230111 12.5258 -0.194987 12.0293 0.0925797C7.28653 2.7682 3.8764 8.13193 6.73777 15.1586C6.97295 15.7337 6.26741 16.2713 5.75785 15.8962C3.39297 14.1833 3.14473 11.7203 3.35378 9.95735C3.43217 9.30721 2.54371 8.99463 2.16481 9.53226C1.27634 10.8326 0.374817 12.933 0.374817 16.0963C0.87131 23.0979 7.05135 25.2484 9.2725 25.5234C12.4474 25.911 15.8837 25.3484 18.3531 23.1854C21.0708 20.7724 22.0637 16.9215 20.6004 13.5707ZM8.4755 19.8596C10.3569 19.422 11.3238 18.1217 11.5851 16.9715C12.0163 15.1836 10.3308 13.4332 11.4675 10.6075C11.8987 12.9455 15.74 14.4084 15.74 16.959C15.8445 20.1222 12.2645 22.8353 8.4755 19.8596Z" fill="#435288"/>
</svg>
