<svg width="49" height="60" viewBox="0 0 49 60" fill="none" xmlns="http://www.w3.org/2000/svg">
<path d="M47.4184 31.7604C42.6092 19.8218 25.4859 19.178 29.6212 1.82604C29.9275 0.538545 28.4878 -0.45634 27.3238 0.21667C16.2044 6.4786 8.20939 19.0317 14.9178 35.4766C15.4692 36.8226 13.8151 38.0808 12.6204 37.203C7.07601 33.1942 6.494 27.4297 6.98411 23.3039C7.1679 21.7823 5.08492 21.0507 4.19659 22.309C2.11361 25.3522 0 30.2681 0 37.6712C1.16402 54.0575 15.653 59.0905 20.8604 59.7342C28.304 60.6413 36.3603 59.3246 42.1497 54.2624C48.5212 48.6149 50.8492 39.6024 47.4184 31.7604ZM18.9919 46.4788C23.4029 45.4547 25.6697 42.4115 26.2823 39.7195C27.2932 35.5351 23.3416 31.4385 26.0066 24.8254C27.0175 30.2973 36.0233 33.7209 36.0233 39.6902C36.2684 47.0933 27.8752 53.443 18.9919 46.4788Z" fill="#19426B"/>
</svg>
