<svg width="59" height="53" viewBox="0 0 59 53" fill="none" xmlns="http://www.w3.org/2000/svg">
<path d="M20.5197 23.4513C22.8389 23.4513 25.1059 22.7636 27.0342 21.4751C28.9624 20.1867 30.4653 18.3554 31.3528 16.2128C32.2403 14.0703 32.4725 11.7126 32.0201 9.43808C31.5676 7.16353 30.4509 5.07422 28.811 3.43436C27.1712 1.7945 25.0819 0.677746 22.8073 0.22531C20.5328 -0.227126 18.1751 0.00508052 16.0325 0.892566C13.89 1.78005 12.0587 3.28296 10.7702 5.21123C9.48181 7.1395 8.79411 9.40653 8.79411 11.7256C8.79411 14.8355 10.0295 17.8179 12.2285 20.0169C14.4275 22.2159 17.4099 23.4513 20.5197 23.4513Z" fill="#19426B"/>
<path d="M43.9712 29.315C45.7106 29.315 47.4108 28.7992 48.857 27.8329C50.3032 26.8666 51.4304 25.4931 52.096 23.8862C52.7616 22.2793 52.9358 20.511 52.5965 18.8051C52.2571 17.0992 51.4196 15.5322 50.1897 14.3023C48.9598 13.0724 47.3928 12.2349 45.6869 11.8955C43.981 11.5562 42.2128 11.7304 40.6058 12.396C38.9989 13.0616 37.6254 14.1888 36.6591 15.635C35.6928 17.0812 35.177 18.7815 35.177 20.5208C35.177 22.8532 36.1035 25.09 37.7528 26.7392C39.402 28.3885 41.6389 29.315 43.9712 29.315Z" fill="#19426B"/>
<path d="M55.6968 49.8378C56.4742 49.8378 57.2198 49.529 57.7696 48.9792C58.3193 48.4295 58.6282 47.6839 58.6282 46.9064C58.6258 44.1667 57.8556 41.4825 56.405 39.1583C54.9544 36.8342 52.8814 34.9631 50.4212 33.7575C47.9611 32.5518 45.2123 32.0598 42.4866 32.3373C39.761 32.6148 37.1677 33.6506 35.001 35.3273C32.1297 32.4673 28.4759 30.5216 24.5002 29.7355C20.5245 28.9493 16.4051 29.3581 12.6614 30.9101C8.91774 32.4621 5.71746 35.088 3.46417 38.4564C1.21088 41.8249 0.0054823 45.7852 0 49.8378C0 50.6153 0.308844 51.3609 0.85859 51.9106C1.40834 52.4604 2.15395 52.7692 2.93141 52.7692H38.1083C38.8858 52.7692 39.6314 52.4604 40.1811 51.9106C40.7309 51.3609 41.0397 50.6153 41.0397 49.8378" fill="#19426B"/>
</svg>
