<?xml version="1.0" standalone="no"?>
<!DOCTYPE svg PUBLIC "-//W3C//DTD SVG 20010904//EN" "http://www.w3.org/TR/2001/REC-SVG-20010904/DTD/svg10.dtd">
<svg version="1.0" xmlns="http://www.w3.org/2000/svg"
    width="26.000000pt" height="17.000000pt" viewBox="0 0 26.000000 17.000000"
    preserveAspectRatio="xMidYMid meet">

    <g transform="translate(0.000000,17.000000) scale(0.100000,-0.100000)"
        fill="#435288" stroke="none">
        <path d="M60 155 c-17 -20 -8 -49 16 -53 30 -4 48 21 34 47 -13 25 -33 27 -50
6z" />
        <path d="M150 150 c-9 -16 -8 -25 1 -36 27 -33 75 -2 52 35 -15 24 -40 25 -53
1z" />
        <path
            d="M22 54 c-12 -8 -22 -24 -22 -35 0 -17 7 -19 80 -19 79 0 80 0 80 25
0 18 -7 28 -26 35 -38 15 -87 12 -112 -6z" />
        <path
            d="M184 54 c3 -9 6 -24 6 -35 0 -15 7 -19 35 -19 28 0 35 4 35 19 0 23
-35 51 -63 51 -13 0 -17 -5 -13 -16z" />
    </g>
</svg>