<?xml version="1.0" standalone="no"?>
<!DOCTYPE svg PUBLIC "-//W3C//DTD SVG 20010904//EN"
 "http://www.w3.org/TR/2001/REC-SVG-20010904/DTD/svg10.dtd">
<svg version="1.0" xmlns="http://www.w3.org/2000/svg"
 width="30.000000pt" height="22.000000pt" viewBox="0 0 30.000000 22.000000"
 preserveAspectRatio="xMidYMid meet">

<g transform="translate(0.000000,22.000000) scale(0.100000,-0.100000)"
fill="#435288" stroke="none">
<path d="M37 213 c-4 -3 -7 -42 -7 -85 0 -63 -3 -78 -15 -78 -8 0 -15 -4 -15
-10 0 -6 27 -10 60 -10 53 0 60 2 60 20 0 16 -7 20 -35 20 l-35 0 0 65 0 65
101 0 c64 0 98 4 94 10 -7 11 -198 14 -208 3z"/>
<path d="M184 145 c-3 -14 -13 -25 -21 -25 -11 0 -13 -13 -11 -57 l3 -58 65 0
65 0 3 58 c3 52 1 57 -18 57 -15 0 -20 6 -20 25 0 21 -5 25 -30 25 -23 0 -31
-5 -36 -25z m46 -10 c0 -8 -4 -15 -10 -15 -5 0 -10 7 -10 15 0 8 5 15 10 15 6
0 10 -7 10 -15z"/>
</g>
</svg>
