<svg width="55" height="62" viewBox="0 0 55 62" fill="none" xmlns="http://www.w3.org/2000/svg">
<path d="M52.6082 57.9173H50.195V2.89586C50.195 1.2965 48.8985 0 47.2991 0H6.75702C5.15766 0 3.86115 1.2965 3.86115 2.89586V57.9173H1.44793C0.648312 57.9173 0 58.5656 0 59.3652V61.7785H54.0561V59.3652C54.0561 58.5656 53.4078 57.9173 52.6082 57.9173ZM15.4446 9.17024C15.4446 8.37062 16.0929 7.72231 16.8925 7.72231H21.719C22.5186 7.72231 23.1669 8.37062 23.1669 9.17024V13.9967C23.1669 14.7963 22.5186 15.4446 21.719 15.4446H16.8925C16.0929 15.4446 15.4446 14.7963 15.4446 13.9967V9.17024ZM15.4446 20.7537C15.4446 19.9541 16.0929 19.3058 16.8925 19.3058H21.719C22.5186 19.3058 23.1669 19.9541 23.1669 20.7537V25.5801C23.1669 26.3798 22.5186 27.0281 21.719 27.0281H16.8925C16.0929 27.0281 15.4446 26.3798 15.4446 25.5801V20.7537ZM21.719 38.6115H16.8925C16.0929 38.6115 15.4446 37.9632 15.4446 37.1636V32.3372C15.4446 31.5375 16.0929 30.8892 16.8925 30.8892H21.719C22.5186 30.8892 23.1669 31.5375 23.1669 32.3372V37.1636C23.1669 37.9632 22.5186 38.6115 21.719 38.6115ZM30.8892 57.9173H23.1669V47.7818C23.1669 46.9821 23.8152 46.3338 24.6149 46.3338H29.4413C30.2409 46.3338 30.8892 46.9821 30.8892 47.7818V57.9173ZM38.6115 37.1636C38.6115 37.9632 37.9632 38.6115 37.1636 38.6115H32.3372C31.5375 38.6115 30.8892 37.9632 30.8892 37.1636V32.3372C30.8892 31.5375 31.5375 30.8892 32.3372 30.8892H37.1636C37.9632 30.8892 38.6115 31.5375 38.6115 32.3372V37.1636ZM38.6115 25.5801C38.6115 26.3798 37.9632 27.0281 37.1636 27.0281H32.3372C31.5375 27.0281 30.8892 26.3798 30.8892 25.5801V20.7537C30.8892 19.9541 31.5375 19.3058 32.3372 19.3058H37.1636C37.9632 19.3058 38.6115 19.9541 38.6115 20.7537V25.5801ZM38.6115 13.9967C38.6115 14.7963 37.9632 15.4446 37.1636 15.4446H32.3372C31.5375 15.4446 30.8892 14.7963 30.8892 13.9967V9.17024C30.8892 8.37062 31.5375 7.72231 32.3372 7.72231H37.1636C37.9632 7.72231 38.6115 8.37062 38.6115 9.17024V13.9967Z" fill="#19426B"/>
</svg>
