<?xml version="1.0" standalone="no"?>
<!DOCTYPE svg PUBLIC "-//W3C//DTD SVG 20010904//EN"
 "http://www.w3.org/TR/2001/REC-SVG-20010904/DTD/svg10.dtd">
<svg version="1.0" xmlns="http://www.w3.org/2000/svg"
 width="28.000000pt" height="26.000000pt" viewBox="0 0 28.000000 26.000000"
 preserveAspectRatio="xMidYMid meet">

<g transform="translate(0.000000,26.000000) scale(0.100000,-0.100000)"
fill="#435288" stroke="none">
<path d="M12 248 c-17 -17 -16 -208 1 -231 11 -15 28 -17 132 -15 l120 3 0
125 0 125 -120 3 c-85 2 -124 -1 -133 -10z m228 -138 l0 -80 -105 0 -105 0 0
80 0 80 105 0 105 0 0 -80z"/>
<path d="M170 135 c0 -16 -6 -25 -15 -25 -8 0 -15 7 -15 16 0 14 -3 14 -15 4
-12 -10 -15 -10 -15 0 0 10 -3 10 -15 0 -8 -7 -15 -25 -15 -41 0 -29 1 -29 60
-29 l60 0 0 50 c0 38 -4 50 -15 50 -9 0 -15 -9 -15 -25z"/>
</g>
</svg>
