<svg width="69" height="59" viewBox="0 0 69 59" fill="none" xmlns="http://www.w3.org/2000/svg">
<path d="M61.3333 0H7.66667C3.41167 0 0 3.31875 0 7.375V51.625C0 55.6813 3.41167 59 7.66667 59H61.3333C65.55 59 69 55.6813 69 51.625V7.375C69 3.31875 65.5883 0 61.3333 0ZM61.3333 51.625H7.66667V14.75H61.3333V51.625Z" fill="#19426B"/>
<path d="M46.0927 27.5146L38.1599 32.5628V28.6692C38.1599 27.5906 36.9663 26.9358 36.0566 27.5146L28.1238 32.5628V21.3686C28.1238 20.6127 27.511 20 26.7552 20H20.3686C19.6127 20 19 20.6127 19 21.3686V44.1779C19 44.9338 19.6127 45.5465 20.3686 45.5465H46.8274C47.5833 45.5465 48.196 44.9338 48.196 44.1779V28.6692C48.196 27.5905 47.0024 26.9358 46.0927 27.5146Z" fill="#19426B"/>
</svg>
