<svg width="69" height="69" viewBox="0 0 69 69" fill="none" xmlns="http://www.w3.org/2000/svg">
<path fill-rule="evenodd" clip-rule="evenodd" d="M3.83333 30.6667H11.5V49.8333H3.83333V30.6667ZM5.96467 3.404C6.90383 1.52567 9.39167 0 11.523 0H57.4732C59.6045 0 62.0962 1.52567 63.0315 3.404L69 15.3333H0L5.96467 3.404ZM0 15.3333H69V19.1667H0V15.3333ZM57.5 30.6667H65.1667V49.8333H57.5V30.6667ZM0 19.1667C0.536667 23.4907 4.19367 26.8333 8.625 26.8333C13.0563 26.8333 16.7133 23.4907 17.25 19.1667H0ZM17.25 19.1667C17.7867 23.4907 21.4437 26.8333 25.875 26.8333C30.3063 26.8333 33.9633 23.4907 34.5 19.1667H17.25ZM34.5 19.1667C35.0367 23.4907 38.6937 26.8333 43.125 26.8333C47.5563 26.8333 51.2133 23.4907 51.75 19.1667H34.5ZM51.75 19.1667C52.2867 23.4907 55.9437 26.8333 60.375 26.8333C64.8063 26.8333 68.4633 23.4907 69 19.1667H51.75ZM3.83333 49.8333H65.1667V61.3142C65.1716 63.347 64.3693 65.2981 62.9361 66.7395C61.5028 68.1808 59.5558 68.9939 57.523 69H11.477C10.4701 68.9985 9.47335 68.7984 8.54392 68.4112C7.61449 68.0236 6.77059 67.4571 6.06054 66.7429C5.35053 66.0292 4.78829 65.182 4.40615 64.2505C4.02396 63.319 3.82931 62.3212 3.83333 61.3142V49.8333Z" fill="#19426B"/>
</svg>
