<?xml version="1.0" standalone="no"?>
<!DOCTYPE svg PUBLIC "-//W3C//DTD SVG 20010904//EN" "http://www.w3.org/TR/2001/REC-SVG-20010904/DTD/svg10.dtd">
<svg version="1.0" xmlns="http://www.w3.org/2000/svg"
    width="38.000000pt" height="33.000000pt" viewBox="0 0 38.000000 33.000000"
    preserveAspectRatio="xMidYMid meet">

    <g transform="translate(0.000000,33.000000) scale(0.100000,-0.100000)"
        fill="#005683" stroke="none">
        <path
            d="M77 323 c-4 -3 -7 -16 -7 -28 0 -13 -7 -40 -16 -61 -12 -29 -13 -43
-5 -56 6 -10 11 -36 11 -58 l0 -40 69 0 70 0 3 48 3 47 43 3 42 3 0 -50 c0
-36 4 -51 14 -51 21 0 29 135 11 171 -8 15 -15 39 -15 54 l0 25 -108 0 c-60 0
-112 -3 -115 -7z m51 -34 c-2 -6 -8 -10 -13 -10 -5 0 -11 4 -13 10 -2 6 4 11
13 11 9 0 15 -5 13 -11z m42 3 c0 -13 -12 -22 -22 -16 -10 6 -1 24 13 24 5 0
9 -4 9 -8z m0 -147 c0 -35 0 -35 -45 -35 -47 0 -50 4 -39 48 5 18 13 22 45 22
38 0 39 -1 39 -35z" />
    </g>
</svg>