<svg width="61" height="61" viewBox="0 0 61 61" fill="none" xmlns="http://www.w3.org/2000/svg">
<path d="M42.141 13.9212L39.5067 16.6776L28.8933 27.3204L25.8009 24.3343L23.052 21.5779L17.669 26.9758L26.1445 35.4748L28.7787 38.2312L47.6386 19.3191L42.141 13.9212Z" fill="#19426B"/>
<path fill-rule="evenodd" clip-rule="evenodd" d="M54.4933 0H6.50667C2.84667 0 0 29.4116 0 33.0564V59C0 60.1046 0.89543 61 2 61H59C60.1046 61 61 60.1046 61 59V33.0564C61 29.4116 58.1533 0 54.4933 0ZM20.3333 50.8755H8.13333V58.9751H20.3333V50.8755ZM24.4 50.8755V58.9751H36.6V50.8755H24.4ZM40.6667 58.9751H52.8667V50.8755H40.6667V58.9751ZM8.13333 42.7759H52.8667V10.1245H8.13333V42.7759Z" fill="#19426B"/>
</svg>
