<?xml version="1.0" standalone="no"?>
<!DOCTYPE svg PUBLIC "-//W3C//DTD SVG 20010904//EN" "http://www.w3.org/TR/2001/REC-SVG-20010904/DTD/svg10.dtd">
<svg version="1.0" xmlns="http://www.w3.org/2000/svg"
    width="32.000000pt" height="27.000000pt" viewBox="0 0 32.000000 27.000000"
    preserveAspectRatio="xMidYMid meet">

    <g transform="translate(0.000000,27.000000) scale(0.100000,-0.100000)"
        fill="#005683" stroke="none">
        <path
            d="M50 197 c0 -65 -2 -73 -23 -82 -18 -8 -23 -19 -25 -62 l-3 -53 40 0
c30 0 41 4 41 15 0 8 7 15 15 15 8 0 15 -7 15 -15 0 -8 7 -15 15 -15 8 0 15 7
15 15 0 8 7 15 15 15 8 0 15 -7 15 -15 0 -8 7 -15 15 -15 8 0 15 7 15 15 0 8
7 15 15 15 8 0 15 -7 15 -15 0 -11 11 -15 40 -15 l41 0 -3 58 c-3 50 -6 57
-25 60 -22 3 -23 8 -23 78 0 58 -3 74 -14 74 -8 0 -18 -4 -21 -10 -4 -6 -13
-5 -25 2 -14 9 -22 9 -32 0 -11 -9 -17 -9 -26 0 -10 10 -17 10 -32 0 -12 -7
-21 -8 -25 -2 -3 6 -13 10 -21 10 -11 0 -14 -16 -14 -73z m180 -42 l0 -65 -75
0 -75 0 0 65 0 65 75 0 75 0 0 -65z" />
        <path
            d="M168 173 c-14 -13 -20 -14 -32 -4 -24 20 -31 -8 -7 -32 l21 -21 29
28 c17 16 28 33 25 38 -8 12 -18 10 -36 -9z" />
    </g>
</svg>