<svg width="40" height="40" viewBox="0 0 40 40" fill="none" xmlns="http://www.w3.org/2000/svg">
<path d="M1.71173 0.0179535C1.19451 0.191824 0.748418 0.530213 0.441586 0.981436C0.134754 1.43266 -0.0159498 1.97191 0.0124926 2.51683V37.5012C0.0124926 38.1639 0.275767 38.7995 0.744398 39.2681C1.21303 39.7368 1.84863 40.0001 2.51137 40.0001H37.4957C38.1585 40.0001 38.7941 39.7368 39.2627 39.2681C39.7313 38.7995 39.9946 38.1639 39.9946 37.5012V2.51683C39.9946 1.85409 39.7313 1.21849 39.2627 0.749859C38.7941 0.281228 38.1585 0.0179535 37.4957 0.0179535L2.51137 0.0179535C2.36175 0.00443215 2.2112 0.00443215 2.06157 0.0179535C1.96171 0.0119508 1.86157 0.0119508 1.76171 0.0179535L1.71173 0.0179535ZM7.50914 5.01572C8.90851 5.01572 10.008 6.11522 10.008 7.5146C10.008 8.91397 8.90851 10.0135 7.50914 10.0135C6.10976 10.0135 5.01025 8.91397 5.01025 7.5146C5.01025 6.11522 6.10976 5.01572 7.50914 5.01572ZM17.5047 5.01572H32.4979C33.8973 5.01572 34.9968 6.11522 34.9968 7.5146C34.9968 8.91397 33.8973 10.0135 32.4979 10.0135H17.5047C16.1053 10.0135 15.0058 8.91397 15.0058 7.5146C15.0058 6.11522 16.1053 5.01572 17.5047 5.01572ZM5.01025 15.0112H34.9968V35.0023H5.01025V15.0112Z" fill="#19426B"/>
</svg>
