<svg height="30" viewBox="0 0 71 50" fill="none" xmlns="http://www.w3.org/2000/svg">
<path fill-rule="evenodd" clip-rule="evenodd" d="M17.0769 30.0714L28.3321 41.3265C30.2812 43.2756 30.2743 46.4426 28.3257 48.3912C26.373 50.3438 23.2048 50.3414 21.261 48.3976L1.53498 28.6716C1.48827 28.6249 1.44269 28.5775 1.39823 28.5294C0.53582 27.6305 0.00585938 26.4114 0.00585938 25.0714C0.00585938 24.4857 0.106179 23.9235 0.290751 23.4013C0.520486 22.6417 0.935093 21.9264 1.53498 21.3265L21.261 1.60051C23.2048 -0.343245 26.373 -0.345693 28.3257 1.60693C30.2743 3.55558 30.2812 6.7225 28.3321 8.67158L16.9323 20.0714H64.9997C67.7645 20.0714 70.0059 22.3156 70.0059 25.0714C70.0059 27.8328 67.7757 30.0714 64.9997 30.0714H17.0769Z" fill="white"/>
</svg>
