<svg width="3132" height="418" viewBox="0 0 3132 418" fill="none" xmlns="http://www.w3.org/2000/svg">
<path d="M782.5 117.915C806.5 141.015 818.5 173.215 818.5 214.515C818.5 255.815 806.5 287.815 782.5 310.715C758.5 333.615 724.4 345.015 680.1 345.015H606.6V83.2148H680.1C724.4 83.2148 758.5 94.8149 782.5 117.915ZM770.4 300.115C791 279.615 801.4 251.115 801.4 214.515C801.4 177.715 791.1 149.015 770.4 128.415C749.8 107.815 719.7 97.4149 680.1 97.4149H623.4V330.915H680.1C719.7 330.815 749.7 320.615 770.4 300.115Z" fill="white" stroke="white" stroke-width="0.75" stroke-miterlimit="10"/>
<path d="M1063.7 117.915C1087.7 141.015 1099.7 173.215 1099.7 214.515C1099.7 255.815 1087.7 287.815 1063.7 310.715C1039.7 333.615 1005.6 345.015 961.3 345.015H887.8V83.2148H961.3C1005.6 83.2148 1039.7 94.8149 1063.7 117.915ZM1051.6 300.115C1072.2 279.615 1082.6 251.115 1082.6 214.515C1082.6 177.715 1072.3 149.015 1051.6 128.415C1031 107.815 1000.9 97.4149 961.3 97.4149H904.6V330.915H961.3C1000.9 330.815 1030.9 320.615 1051.6 300.115Z" fill="white" stroke="white" stroke-width="0.75" stroke-miterlimit="10"/>
<path d="M1344.9 117.915C1368.9 141.015 1380.9 173.215 1380.9 214.515C1380.9 255.815 1368.9 287.815 1344.9 310.715C1320.9 333.615 1286.8 345.015 1242.5 345.015H1169V83.2148H1242.5C1286.8 83.2148 1320.9 94.8149 1344.9 117.915ZM1332.8 300.115C1353.4 279.615 1363.8 251.115 1363.8 214.515C1363.8 177.715 1353.5 149.015 1332.8 128.415C1312.2 107.815 1282.1 97.4149 1242.5 97.4149H1185.8V330.915H1242.5C1282.1 330.815 1312.1 320.615 1332.8 300.115Z" fill="white" stroke="white" stroke-width="0.75" stroke-miterlimit="10"/>
<path d="M1590.9 83.2148V345.015H1574.1V83.2148H1590.9Z" fill="white" stroke="white" stroke-width="0.75" stroke-miterlimit="10"/>
<path d="M1821.3 160.614C1836.5 175.414 1844 197.314 1844 226.414V345.014H1827.6V227.514C1827.6 203.414 1821.5 184.914 1809.3 172.114C1797.1 159.314 1780.6 152.914 1759.7 152.914C1737.8 152.914 1720.4 159.914 1707.3 173.814C1694.2 187.714 1687.7 208.414 1687.7 235.714V345.014H1670.9V142.514H1687.7V185.414C1693.4 170.214 1702.9 158.614 1716.2 150.514C1729.5 142.414 1744.9 138.414 1762.3 138.414C1786.5 138.414 1806.2 145.814 1821.3 160.614Z" fill="white" stroke="white" stroke-width="0.75" stroke-miterlimit="10"/>
<path d="M1990.6 326.714L2065.2 142.514H2083.1L1999.2 345.014H1981.7L1897.8 142.514H1916.1L1990.6 326.714Z" fill="white" stroke="white" stroke-width="0.75" stroke-miterlimit="10"/>
<path d="M2176.7 335.314C2161.5 326.814 2149.7 314.714 2141.1 298.914C2132.5 283.114 2128.2 264.714 2128.2 243.514C2128.2 222.614 2132.5 204.314 2141.3 188.514C2150 172.714 2162 160.714 2177.3 152.314C2192.6 144.014 2209.7 139.814 2228.6 139.814C2247.5 139.814 2264.5 144.014 2279.7 152.314C2294.9 160.614 2306.7 172.614 2315.3 188.314C2323.9 204.014 2328.2 222.414 2328.2 243.514C2328.2 264.614 2323.8 283.114 2315.1 298.914C2306.4 314.714 2294.4 326.814 2279.1 335.314C2263.8 343.814 2246.7 348.014 2227.8 348.014C2208.9 348.014 2191.9 343.814 2176.7 335.314ZM2269 323.214C2281.8 316.614 2292.1 306.614 2299.8 293.214C2307.5 279.814 2311.4 263.214 2311.4 243.614C2311.4 224.214 2307.5 207.814 2299.8 194.414C2292.1 181.014 2281.9 171.014 2269.2 164.414C2256.5 157.814 2242.8 154.514 2228.2 154.514C2213.5 154.514 2199.9 157.814 2187.4 164.414C2174.8 171.014 2164.7 181.014 2157 194.414C2149.3 207.814 2145.4 224.214 2145.4 243.614C2145.4 263.214 2149.2 279.814 2156.8 293.214C2164.4 306.614 2174.5 316.614 2187 323.214C2199.6 329.814 2213.2 333.114 2227.8 333.114C2242.5 333.114 2256.2 329.814 2269 323.214Z" fill="white" stroke="white" stroke-width="0.75" stroke-miterlimit="10"/>
<path d="M2396.4 93.5141C2393.7 90.9141 2392.3 87.3141 2392.3 82.9141C2392.3 78.7141 2393.7 75.2141 2396.4 72.5141C2399.1 69.8141 2402.5 68.4141 2406.5 68.4141C2410.5 68.4141 2413.8 69.8141 2416.6 72.5141C2419.3 75.2141 2420.7 78.7141 2420.7 82.9141C2420.7 87.4141 2419.3 90.9141 2416.6 93.5141C2413.9 96.1141 2410.5 97.4141 2406.5 97.4141C2402.5 97.4141 2399.1 96.1141 2396.4 93.5141ZM2414.7 142.514V345.014H2397.9V142.514H2414.7Z" fill="white" stroke="white" stroke-width="0.75" stroke-miterlimit="10"/>
<path d="M2496.9 188.414C2505.2 172.714 2516.8 160.714 2531.6 152.414C2546.4 144.114 2563.4 139.914 2582.5 139.914C2607.9 139.914 2628.7 146.214 2645 158.914C2661.3 171.614 2671.4 188.614 2675.4 210.014H2657.9C2654.7 192.614 2646.3 178.914 2632.7 169.014C2619.1 159.114 2602.4 154.114 2582.5 154.114C2567.6 154.114 2554 157.414 2541.8 164.014C2529.6 170.614 2519.9 180.714 2512.5 194.214C2505.2 207.814 2501.5 224.214 2501.5 243.614C2501.5 263.214 2505.2 279.814 2512.5 293.214C2519.8 306.614 2529.6 316.714 2541.8 323.414C2554 330.114 2567.5 333.514 2582.5 333.514C2602.4 333.514 2619.1 328.514 2632.7 318.614C2646.2 308.714 2654.6 295.014 2657.9 277.614H2675.4C2671.4 298.714 2661.2 315.814 2644.8 328.714C2628.4 341.614 2607.6 348.114 2582.5 348.114C2563.4 348.114 2546.4 343.914 2531.6 335.414C2516.8 326.914 2505.2 314.814 2496.9 299.014C2488.6 283.214 2484.4 264.814 2484.4 243.614C2484.4 222.414 2488.6 204.014 2496.9 188.414Z" fill="white" stroke="white" stroke-width="0.75" stroke-miterlimit="10"/>
<path d="M2926.7 250.314H2751.8C2752.3 268.514 2756.3 283.714 2763.7 296.214C2771.2 308.614 2781 318.014 2793.2 324.214C2805.4 330.414 2818.7 333.514 2833.1 333.514C2853 333.514 2869.6 328.614 2883.1 318.814C2896.5 309.014 2905 295.614 2908.5 278.714H2926C2922 299.314 2911.8 316.114 2895.4 328.914C2879 341.714 2858.2 348.114 2833.1 348.114C2814.2 348.114 2797.3 343.914 2782.4 335.414C2767.5 326.914 2755.8 314.814 2747.3 299.014C2738.8 283.214 2734.6 264.814 2734.6 243.614C2734.6 222.514 2738.8 204.114 2747.1 188.414C2755.4 172.714 2767.1 160.714 2782 152.414C2796.9 144.114 2813.9 139.914 2833.1 139.914C2852.5 139.914 2869.3 144.114 2883.6 152.414C2897.9 160.714 2908.8 171.814 2916.2 185.614C2923.7 199.414 2927.4 214.314 2927.4 230.214C2927.5 239.114 2927.2 245.814 2926.7 250.314ZM2901.2 191.014C2894.1 178.614 2884.5 169.314 2872.3 163.214C2860.1 157.114 2846.9 154.114 2832.8 154.114C2818.7 154.114 2805.5 157.114 2793.5 163.214C2781.4 169.314 2771.6 178.614 2764 191.014C2756.4 203.414 2752.4 218.614 2751.9 236.514H2910.8C2911.4 218.614 2908.3 203.414 2901.2 191.014Z" fill="white" stroke="white" stroke-width="0.75" stroke-miterlimit="10"/>
<path d="M3008.9 333.114C2994.6 323.214 2986.6 309.014 2984.8 290.614H3002C3003.2 303.814 3009.3 314.214 3020.1 321.914C3030.9 329.614 3045.6 333.514 3064.3 333.514C3079.7 333.514 3092 329.614 3101 321.814C3110.1 314.014 3114.6 304.314 3114.6 292.914C3114.6 284.914 3112.2 278.414 3107.3 273.314C3102.5 268.214 3096.4 264.314 3089.2 261.614C3082 258.914 3072.2 255.914 3059.7 252.614C3044.8 248.614 3032.7 244.714 3023.5 240.914C3014.3 237.014 3006.5 231.314 3000 223.614C2993.5 215.914 2990.3 205.614 2990.3 192.614C2990.3 183.214 2993.2 174.414 2998.9 166.314C3004.6 158.214 3012.6 151.814 3022.8 147.114C3033 142.414 3044.6 140.014 3057.5 140.014C3078.6 140.014 3095.7 145.314 3108.8 155.914C3121.9 166.514 3128.9 181.114 3129.9 199.714H3113.1C3112.4 186.314 3107.1 175.314 3097.4 166.914C3087.7 158.514 3074.3 154.214 3057.1 154.214C3042.7 154.214 3030.7 157.914 3021.3 165.414C3011.8 172.914 3007.1 181.914 3007.1 192.614C3007.1 202.114 3009.8 209.714 3015.1 215.514C3020.4 221.314 3027 225.814 3034.9 228.914C3042.7 232.014 3053.1 235.314 3066 238.814C3080.2 242.514 3091.5 246.214 3100.1 249.814C3108.7 253.414 3115.9 258.614 3121.9 265.514C3127.9 272.314 3130.9 281.514 3130.9 292.914C3130.9 303.314 3128 312.814 3122.3 321.214C3116.6 329.714 3108.6 336.214 3098.4 341.014C3088.2 345.714 3076.8 348.114 3064.1 348.114C3041.7 348.014 3023.2 343.014 3008.9 333.114Z" fill="white" stroke="white" stroke-width="0.75" stroke-miterlimit="10"/>
<path d="M61.4 181.813L65.3 194.313L57.1 209.813V301.513L58.4 315.513L51 328.813L137.7 384.613L355.3 373.013L358.2 370.313L421.4 268.613L423.5 261.613L327.1 136.213L127.4 140.113L61.4 181.813Z" fill="white"/>
<path d="M422.1 266.214C323.4 219.314 149.3 204.314 59.2998 205.814L65.3998 194.414H431.8C432.5 218.514 428.9 242.914 422.1 266.214Z" fill="url(#paint0_linear_1708_220)"/>
<path d="M402.4 314.314C390.3 335.914 375.1 355.614 356.6 371.814C260.9 338.514 134.4 326.514 52.7 325.814L58.5 315.414H38.5L39.1 314.414H402.4V314.314Z" fill="url(#paint1_linear_1708_220)"/>
<path d="M52.6999 325.814C134.4 326.514 260.8 338.614 356.6 371.814C355.4 372.914 354.2 373.914 352.9 375.014C313.6 407.514 261.2 418.214 211.3 417.914C143 417.414 74.3999 416.614 5.79991 416.614H1.8999L52.6999 325.814Z" fill="white"/>
<path d="M57.6001 315.513H1.1001L59.2001 205.913C149.2 204.413 323.4 219.413 422 266.313C418.6 278.113 414.2 289.613 409.1 300.613C406.9 305.413 404.7 310.013 402.3 314.513" fill="white"/>
<path d="M0 194.314C0 194.314 120.2 8.21356 122.4 4.41356C123.5 2.51356 124.8 1.51356 127.2 1.51356C144.1 1.01356 161.1 0.213562 178 0.0135622C204.3 -0.186438 230.5 1.81355 256.4 6.81355C332.6 21.4136 404.7 76.2135 425.7 153.014C426.8 156.914 427.6 160.814 428.5 164.814C430.4 174.514 431.5 184.414 431.9 194.314H0Z" fill="white"/>
<path d="M458.2 199.713H458" stroke="black" stroke-width="0.25" stroke-miterlimit="10"/>
<defs>
<linearGradient id="paint0_linear_1708_220" x1="236.913" y1="322.175" x2="266.768" y2="-74.4668" gradientUnits="userSpaceOnUse">
<stop offset="0.2542" stop-color="white"/>
<stop offset="0.7586"/>
</linearGradient>
<linearGradient id="paint1_linear_1708_220" x1="213.13" y1="411.885" x2="240.258" y2="51.4689" gradientUnits="userSpaceOnUse">
<stop offset="0.1994" stop-color="white"/>
<stop offset="0.7783"/>
</linearGradient>
</defs>
</svg>
