<?xml version="1.0" standalone="no"?>
<!DOCTYPE svg PUBLIC "-//W3C//DTD SVG 20010904//EN"
 "http://www.w3.org/TR/2001/REC-SVG-20010904/DTD/svg10.dtd">
<svg version="1.0" xmlns="http://www.w3.org/2000/svg"
 width="117.000000pt" height="38.000000pt" viewBox="0 0 117.000000 38.000000"
 preserveAspectRatio="xMidYMid meet">

<g transform="translate(0.000000,38.000000) scale(0.100000,-0.100000)"
fill="#ed1d25" stroke="none">
<path d="M21 366 c-8 -9 -11 -68 -9 -187 l3 -174 24 -3 c12 -2 34 -1 47 2 23
6 24 10 24 85 0 91 0 91 94 91 67 0 78 4 69 26 -4 11 -28 14 -103 14 -106 0
-110 2 -110 60 0 58 4 60 111 60 92 0 99 1 99 20 0 19 -7 20 -119 20 -89 0
-121 -3 -130 -14z"/>
<path d="M314 367 c-2 -7 -3 -91 -2 -187 l3 -175 125 0 c110 0 125 2 128 17 3
15 -7 18 -75 20 l-78 3 0 65 0 65 78 3 c68 2 78 5 75 20 -3 14 -19 18 -103 22
l-100 5 0 55 0 55 103 3 c94 2 102 4 102 22 0 19 -7 20 -125 20 -93 0 -127 -3
-131 -13z"/>
<path d="M657 374 c-4 -4 -7 -37 -7 -74 0 -55 -4 -72 -25 -100 -21 -28 -25
-45 -25 -101 0 -90 4 -99 49 -99 53 0 61 13 61 96 0 56 3 73 16 78 28 11 120
6 132 -6 7 -7 12 -40 12 -79 0 -70 14 -97 45 -85 12 4 15 23 15 85 0 75 -2 83
-30 114 -25 29 -29 43 -32 103 l-3 69 -101 3 c-55 1 -103 0 -107 -4z m153 -95
l0 -60 -47 3 -48 3 -3 44 c-5 64 1 71 53 71 l45 0 0 -61z"/>
<path d="M967 374 c-4 -4 -7 -85 -7 -179 0 -136 3 -175 14 -184 9 -8 46 -11
103 -9 70 2 88 6 88 18 0 11 -14 16 -50 20 l-50 5 -3 70 c-2 52 -8 75 -22 90
-14 15 -20 38 -22 95 -3 67 -5 75 -23 78 -12 2 -24 0 -28 -4z"/>
</g>
</svg>
